<?xml version="1.0" encoding="UTF-8"?> <svg xmlns="http://www.w3.org/2000/svg" width="52px" height="14px"><defs><filter id="filter_one"><feFlood flood-color="#27ae93" flood-opacity="1" result="floodOut"></feFlood><feComposite operator="atop" in="floodOut" in2="SourceGraphic" result="compOut"></feComposite><feBlend mode="normal" in="compOut" in2="SourceGraphic"></feBlend></filter><filter id="filter_zero"><feFlood flood-color="#27ae93" flood-opacity="1" result="floodOut"></feFlood><feComposite operator="atop" in="floodOut" in2="SourceGraphic" result="compOut"></feComposite><feBlend mode="normal" in="compOut" in2="SourceGraphic"></feBlend></filter></defs><g filter="url(#filter_one)"><path fill-rule="evenodd" fill="rgb(255, 255, 255)" d="M14.906,3.518 C14.669,3.543 14.437,3.607 14.221,3.709 C14.092,3.511 13.929,3.338 13.741,3.194 C13.627,2.734 13.635,2.251 13.769,1.788 C13.954,1.155 14.363,0.606 14.925,0.241 L15.302,-0.003 L15.491,0.398 C15.772,0.996 15.825,1.673 15.640,2.306 C15.506,2.767 15.251,3.184 14.906,3.518 ZM14.031,4.359 L14.257,4.217 C14.645,3.972 15.123,3.904 15.566,4.027 L17.000,4.423 L16.949,4.598 C16.708,5.423 15.781,5.920 14.923,5.682 L12.559,5.027 C12.149,4.913 11.809,4.646 11.601,4.277 C11.394,3.907 11.345,3.481 11.462,3.077 L11.513,2.902 L12.906,3.287 C13.349,3.411 13.717,3.715 13.916,4.123 L14.031,4.359 ZM12.786,5.859 C12.831,5.775 12.875,5.690 12.918,5.605 L14.068,5.924 C13.996,6.073 13.921,6.221 13.843,6.369 C13.611,6.354 13.378,6.376 13.151,6.438 C13.064,6.225 12.940,6.029 12.786,5.859 ZM12.775,6.789 L12.845,7.043 L13.093,6.943 C13.520,6.771 14.003,6.786 14.416,6.986 L15.718,7.614 L15.640,7.768 C15.450,8.145 15.119,8.429 14.709,8.567 C14.298,8.706 13.861,8.681 13.479,8.496 L11.276,7.435 C10.893,7.250 10.608,6.927 10.471,6.524 C10.335,6.122 10.365,5.693 10.556,5.317 L10.634,5.163 L11.936,5.791 C12.350,5.989 12.656,6.354 12.775,6.789 ZM11.497,8.613 C11.444,8.437 11.367,8.270 11.269,8.116 C11.302,8.075 11.336,8.035 11.369,7.992 L12.444,8.511 C12.411,8.554 12.377,8.596 12.344,8.640 C12.068,8.574 11.779,8.565 11.497,8.613 ZM11.131,9.187 L11.389,9.111 C11.831,8.980 12.309,9.041 12.701,9.277 L13.935,10.026 L13.842,10.172 C13.615,10.529 13.257,10.780 12.835,10.879 C12.414,10.979 11.981,10.912 11.619,10.693 L9.531,9.428 C8.778,8.972 8.551,7.997 9.024,7.253 L9.117,7.106 L10.352,7.854 C10.743,8.092 11.011,8.483 11.087,8.928 L11.131,9.187 ZM10.568,10.598 C10.186,10.971 9.800,11.322 9.417,11.653 C10.068,12.160 10.684,12.594 11.212,12.946 C11.481,13.125 11.551,13.483 11.367,13.745 C11.253,13.908 11.068,13.996 10.879,13.996 C10.765,13.996 10.649,13.964 10.547,13.896 C9.949,13.499 9.245,13.000 8.500,12.410 C7.755,13.000 7.050,13.499 6.453,13.896 C6.351,13.964 6.235,13.996 6.121,13.996 C5.932,13.996 5.747,13.908 5.633,13.745 C5.449,13.483 5.518,13.125 5.788,12.946 C6.316,12.594 6.931,12.160 7.583,11.653 C7.200,11.322 6.814,10.971 6.432,10.598 L7.461,9.975 C7.806,10.303 8.154,10.615 8.500,10.908 C8.845,10.615 9.194,10.303 9.539,9.975 L10.568,10.598 ZM5.381,10.693 C5.019,10.912 4.586,10.979 4.164,10.879 C3.742,10.779 3.385,10.529 3.158,10.172 L3.065,10.026 L4.299,9.277 C4.690,9.041 5.169,8.980 5.611,9.111 L5.868,9.187 L5.913,8.928 C5.988,8.483 6.257,8.092 6.648,7.854 L7.882,7.106 L7.976,7.253 C8.449,7.997 8.221,8.972 7.469,9.428 L5.381,10.693 ZM5.503,8.613 C5.221,8.565 4.932,8.574 4.656,8.640 C4.622,8.596 4.589,8.554 4.556,8.511 L5.631,7.993 C5.664,8.035 5.698,8.075 5.731,8.116 C5.633,8.270 5.556,8.437 5.503,8.613 ZM5.724,7.435 L3.521,8.497 C3.138,8.681 2.702,8.706 2.291,8.567 C1.881,8.429 1.550,8.145 1.360,7.768 L1.281,7.614 L2.584,6.986 C2.997,6.786 3.479,6.771 3.907,6.943 L4.155,7.043 L4.225,6.789 C4.344,6.354 4.650,5.989 5.063,5.791 L6.366,5.163 L6.444,5.317 C6.635,5.693 6.665,6.122 6.529,6.524 C6.392,6.927 6.106,7.250 5.724,7.435 ZM3.849,6.438 C3.622,6.376 3.389,6.354 3.157,6.369 C3.079,6.221 3.004,6.073 2.932,5.924 L4.082,5.605 C4.125,5.690 4.169,5.775 4.213,5.859 C4.060,6.029 3.936,6.225 3.849,6.438 ZM4.440,5.027 L2.077,5.682 C1.219,5.920 0.291,5.423 0.051,4.598 L-0.000,4.423 L1.434,4.027 C1.877,3.904 2.354,3.973 2.743,4.217 L2.968,4.359 L3.084,4.123 C3.282,3.715 3.651,3.411 4.094,3.287 L5.486,2.902 L5.537,3.077 C5.655,3.481 5.606,3.907 5.398,4.277 C5.191,4.646 4.851,4.913 4.440,5.027 ZM2.779,3.709 C2.563,3.607 2.330,3.543 2.094,3.518 C1.749,3.184 1.494,2.767 1.359,2.306 C1.175,1.673 1.228,0.996 1.509,0.398 L1.698,-0.003 L2.075,0.241 C2.636,0.606 3.046,1.155 3.231,1.788 C3.365,2.251 3.373,2.734 3.259,3.194 C3.071,3.338 2.908,3.511 2.779,3.709 Z"></path></g><g filter="url(#filter_zero)"><path fill-rule="evenodd" fill="rgb(255, 255, 255)" d="M21.000,7.000 L52.000,7.000 L52.000,8.000 L21.000,8.000 L21.000,7.000 Z"></path></g></svg> 