<svg xmlns="http://www.w3.org/2000/svg" xmlns:xlink="http://www.w3.org/1999/xlink" width="144px" height="73px">
<defs>
<filter id="filter_zero">
    <feFlood flood-color="rgb(39, 174, 147)" flood-opacity="1" result="floodOut"></feFlood>
    <feComposite operator="atop" in="floodOut" in2="SourceGraphic" result="compOut"></feComposite>
    <feBlend mode="normal" in="compOut" in2="SourceGraphic"></feBlend>
</filter>
<filter id="filter_one">
    <feFlood flood-color="rgb(39, 174, 147)" flood-opacity="1" result="floodOut"></feFlood>
    <feComposite operator="atop" in="floodOut" in2="SourceGraphic" result="compOut"></feComposite>
    <feBlend mode="normal" in="compOut" in2="SourceGraphic"></feBlend>
</filter>

</defs>
<g filter="url(#filter_zero)">
<path fill-rule="evenodd" fill="rgb(81, 176, 30)" d="M92.992,24.599 L92.997,24.599 C92.877,27.699 91.821,31.059 90.200,34.162 C90.200,34.162 86.331,41.999 74.182,41.999 C62.032,41.999 58.093,34.229 58.093,34.229 C56.469,31.114 55.483,27.776 55.360,24.602 L55.368,24.602 C55.362,24.514 55.360,24.435 55.360,24.352 C55.360,22.863 56.281,21.467 57.869,20.265 L59.560,21.347 C58.513,22.050 57.907,22.835 57.907,23.669 C57.907,26.603 65.193,28.985 74.182,28.985 C83.167,28.985 90.451,26.603 90.451,23.669 C90.451,21.640 86.957,19.874 81.827,18.980 L81.849,16.847 C88.417,18.130 93.000,21.003 93.000,24.352 C93.000,24.435 92.997,24.514 92.992,24.599 Z"></path>
</g>
<path fill-rule="evenodd" fill="rgb(235, 182, 40)" d="M61.615,11.962 C61.551,12.460 61.468,13.259 62.082,14.345 C62.844,15.660 63.819,16.114 64.134,16.337 C64.081,15.999 64.174,14.986 63.460,13.755 C62.844,12.649 62.172,12.157 61.772,11.775 C60.648,10.153 59.381,8.855 58.414,7.829 L56.113,5.438 C56.110,5.438 56.939,6.396 58.319,7.908 C59.263,8.972 60.514,10.318 61.615,11.962 ZM67.375,24.618 C67.867,25.080 68.489,25.840 69.875,26.608 C71.426,27.476 72.737,27.476 73.178,27.574 C72.929,27.169 72.428,25.886 70.715,24.937 C69.309,24.164 68.259,24.314 67.613,24.425 C65.492,23.188 63.675,21.927 62.208,21.023 C60.114,19.732 58.753,19.074 58.759,19.074 C58.753,19.076 60.078,19.800 62.127,21.154 C63.536,22.087 65.288,23.369 67.375,24.618 ZM68.626,17.870 C68.458,18.441 68.217,19.365 68.757,20.726 C69.405,22.390 70.482,23.081 70.816,23.396 C70.819,22.988 71.102,21.836 70.490,20.270 C69.951,18.882 69.248,18.189 68.844,17.680 C67.794,15.600 66.515,13.872 65.532,12.527 L63.183,9.359 L65.403,12.598 C66.358,13.993 67.604,15.767 68.626,17.870 ZM64.677,21.246 C65.145,21.660 65.742,22.362 67.049,23.052 C68.511,23.820 69.732,23.791 70.140,23.871 C69.900,23.505 69.401,22.331 67.789,21.481 C66.467,20.791 65.495,20.944 64.896,21.057 C62.900,19.945 61.184,18.802 59.809,17.976 C57.834,16.801 56.555,16.206 56.563,16.201 C56.558,16.206 57.802,16.865 59.728,18.099 C61.051,18.951 62.713,20.119 64.677,21.246 ZM61.858,17.920 C62.298,18.302 62.863,18.941 64.081,19.550 C65.448,20.241 66.579,20.193 66.960,20.261 C66.731,19.926 66.245,18.858 64.743,18.099 C63.510,17.485 62.611,17.640 62.060,17.747 C60.193,16.748 58.588,15.705 57.303,14.957 C55.463,13.888 54.270,13.348 54.276,13.343 C54.270,13.351 55.432,13.947 57.233,15.069 C58.473,15.844 60.022,16.907 61.858,17.920 ZM58.986,13.078 C59.809,13.816 60.595,13.859 61.038,14.003 C60.942,13.644 61.024,12.756 60.086,11.919 C59.282,11.232 58.473,11.175 58.059,11.144 C54.754,8.315 51.826,6.494 51.152,6.062 L51.000,5.958 C50.975,5.981 54.203,8.110 57.983,11.425 C58.104,11.837 58.325,12.514 58.986,13.078 ZM58.930,14.642 C59.338,14.989 59.865,15.571 60.998,16.114 C62.259,16.742 63.303,16.678 63.656,16.733 C63.434,16.431 62.972,15.472 61.588,14.785 C60.442,14.238 59.619,14.375 59.111,14.480 C57.381,13.581 55.900,12.625 54.705,11.959 C53.004,10.977 51.895,10.501 51.898,10.495 C51.898,10.501 52.979,11.029 54.639,12.063 C55.790,12.756 57.225,13.727 58.930,14.642 ZM65.216,14.820 C65.098,15.355 64.938,16.220 65.523,17.442 C66.232,18.937 67.271,19.504 67.595,19.771 C67.568,19.400 67.744,18.315 67.083,16.914 C66.490,15.670 65.804,15.075 65.401,14.631 C64.303,12.783 63.028,11.265 62.045,10.083 L59.710,7.306 L61.933,10.159 C62.894,11.385 64.143,12.948 65.216,14.820 ZM78.201,17.999 C77.829,18.366 77.250,18.972 77.064,20.233 C76.829,21.765 77.340,22.734 77.455,23.108 C77.633,22.805 78.349,22.042 78.573,20.596 C78.762,19.315 78.532,18.497 78.447,17.942 C78.554,15.921 78.327,14.076 78.158,12.646 C77.906,10.561 77.723,9.265 77.726,9.265 L78.026,12.649 C78.158,14.103 78.338,15.977 78.201,17.999 ZM77.012,14.567 C76.689,14.927 76.192,15.527 76.096,16.705 C75.981,18.136 76.512,19.001 76.643,19.344 C76.788,19.049 77.403,18.294 77.513,16.949 C77.611,15.744 77.348,15.005 77.236,14.496 C77.212,12.625 76.903,10.935 76.668,9.624 L76.090,6.524 L76.553,9.632 C76.747,10.968 77.020,12.689 77.012,14.567 ZM75.628,11.200 C75.355,11.551 74.934,12.137 74.923,13.225 C74.906,14.552 75.456,15.315 75.598,15.619 C75.708,15.334 76.219,14.599 76.238,13.353 C76.249,12.243 75.967,11.585 75.831,11.123 C75.691,9.402 75.314,7.869 75.019,6.679 L74.313,3.863 L74.906,6.696 C75.166,7.914 75.516,9.472 75.628,11.200 ZM78.065,26.918 C78.278,26.606 79.107,25.846 79.454,24.309 C79.754,22.949 79.563,22.053 79.508,21.448 C79.760,19.286 79.629,17.285 79.530,15.736 C79.388,13.480 79.262,12.078 79.262,12.078 L79.393,15.734 C79.443,17.306 79.525,19.330 79.240,21.490 C78.814,21.862 78.155,22.472 77.868,23.805 C77.507,25.430 77.969,26.504 78.065,26.918 ZM71.158,8.988 C71.327,9.375 71.501,9.979 72.128,10.752 C72.820,11.632 73.591,11.926 73.826,12.086 C73.775,11.790 73.783,10.935 73.022,9.971 C72.390,9.191 71.748,9.020 71.345,8.929 C70.418,7.695 69.686,6.509 69.058,5.619 C68.177,4.338 67.546,3.623 67.551,3.618 C67.546,3.621 68.139,4.368 68.973,5.672 C69.561,6.569 70.250,7.754 71.158,8.988 ZM71.751,7.860 C72.090,8.673 72.638,8.967 72.908,9.215 C72.962,8.925 73.336,8.296 72.954,7.373 C72.619,6.603 72.050,6.294 71.765,6.136 C70.378,2.965 68.911,0.661 68.575,0.117 L68.503,-0.006 C68.478,0.003 70.054,2.632 71.610,6.316 C71.554,6.656 71.473,7.228 71.751,7.860 ZM73.140,14.296 C73.881,15.255 74.713,15.593 74.969,15.767 C74.920,15.445 74.947,14.504 74.133,13.450 C73.460,12.589 72.756,12.402 72.319,12.301 C71.322,10.949 70.536,9.655 69.872,8.682 C68.922,7.286 68.259,6.500 68.259,6.494 C68.259,6.498 68.884,7.320 69.782,8.740 C70.404,9.716 71.143,11.011 72.112,12.366 C72.294,12.788 72.478,13.440 73.140,14.296 ZM74.040,7.914 C73.821,8.256 73.482,8.815 73.537,9.811 C73.621,11.029 74.165,11.685 74.313,11.954 C74.395,11.691 74.819,10.977 74.740,9.837 C74.688,8.820 74.373,8.237 74.223,7.824 C73.985,6.267 73.528,4.891 73.195,3.824 L72.377,1.301 C72.374,1.301 72.636,2.283 73.098,3.848 C73.400,4.940 73.826,6.342 74.040,7.914 ZM72.974,15.734 C73.159,16.198 73.344,16.907 74.040,17.840 C74.825,18.890 75.716,19.272 75.986,19.469 C75.943,19.116 75.995,18.094 75.133,16.940 C74.422,15.993 73.668,15.784 73.195,15.670 C72.145,14.191 71.314,12.784 70.614,11.725 C69.606,10.209 68.895,9.349 68.898,9.347 C68.895,9.349 69.555,10.243 70.513,11.787 C71.169,12.850 71.949,14.254 72.974,15.734 ZM62.782,24.985 C62.779,24.991 63.942,25.649 65.759,26.932 C65.887,26.959 66.013,26.988 66.146,27.016 C64.110,25.660 62.779,24.988 62.782,24.985 ZM77.283,27.541 C77.009,27.114 76.725,26.800 76.440,26.562 C76.345,26.300 76.243,26.053 76.140,25.840 C76.758,26.469 77.332,26.781 77.545,26.955 C77.545,26.928 77.545,26.891 77.545,26.849 C77.624,27.098 77.693,27.350 77.769,27.607 C77.884,27.595 77.999,27.590 78.114,27.580 C77.901,26.851 77.665,26.147 77.408,25.478 C77.321,25.118 77.173,24.725 76.933,24.304 C76.708,23.776 76.479,23.270 76.254,22.788 C76.533,22.978 76.755,23.102 76.867,23.193 C76.834,22.811 76.925,21.703 76.025,20.439 C75.494,19.701 74.926,19.371 74.461,19.192 L73.033,16.415 C73.031,16.415 73.498,17.429 74.302,19.135 C74.182,19.097 74.067,19.063 73.971,19.035 C72.873,17.425 72.008,15.900 71.269,14.751 C70.216,13.113 69.463,12.184 69.469,12.181 C69.466,12.186 70.162,13.150 71.163,14.820 C71.845,15.972 72.663,17.495 73.725,19.103 C73.914,19.601 74.100,20.367 74.825,21.390 C75.166,21.868 75.524,22.218 75.853,22.485 C75.976,22.767 76.107,23.057 76.233,23.360 C75.620,22.743 75.002,22.543 74.581,22.419 C74.461,22.232 74.346,22.048 74.231,21.862 C73.523,20.345 72.764,19.004 72.128,17.887 C70.728,15.438 69.816,13.936 69.822,13.936 L71.966,17.955 C72.128,18.257 72.297,18.585 72.476,18.917 C72.240,18.515 72.016,18.136 71.807,17.789 C70.715,16.020 69.925,15.017 69.927,15.014 C69.922,15.019 70.656,16.058 71.690,17.862 C72.297,18.922 72.997,20.281 73.870,21.747 C74.253,22.600 74.619,23.505 74.942,24.462 C74.854,24.658 74.756,24.900 74.669,25.189 C73.701,23.535 72.919,22.005 72.216,20.827 C71.989,20.434 71.778,20.093 71.583,19.774 C70.698,17.957 69.686,16.393 68.872,15.138 C67.450,12.942 66.531,11.588 66.534,11.588 L68.729,15.208 C69.670,16.767 70.902,18.763 71.851,21.091 C71.631,21.693 71.305,22.669 71.784,24.170 C72.361,25.999 73.465,26.822 73.799,27.186 C73.832,26.776 74.176,25.669 73.769,24.101 C74.023,24.571 74.286,25.061 74.576,25.559 C74.455,26.124 74.428,26.832 74.647,27.738 C75.554,27.730 76.451,27.699 77.332,27.639 C77.310,27.607 77.299,27.574 77.283,27.541 ZM64.479,24.143 C62.270,22.726 60.827,22.008 60.831,22.005 C60.827,22.008 62.224,22.795 64.383,24.279 C65.636,25.140 67.164,26.283 68.922,27.449 C69.141,27.476 69.363,27.492 69.581,27.513 C67.602,26.266 65.884,25.043 64.479,24.143 ZM80.403,25.020 C80.815,22.720 80.788,20.560 80.788,18.895 L80.706,14.955 C80.706,14.955 80.668,16.458 80.638,18.884 C80.591,20.573 80.564,22.748 80.110,25.043 C79.634,25.409 78.896,26.017 78.475,27.418 C78.464,27.464 78.458,27.506 78.447,27.552 C79.082,27.492 79.700,27.421 80.304,27.340 C80.501,26.305 80.414,25.548 80.403,25.020 Z"></path>
<g filter="url(#filter_one)">
<path fill-rule="evenodd" fill="rgb(81, 176, 30)" d="M139.092,71.745 L139.092,63.075 C139.092,60.915 138.522,60.256 137.263,60.256 C136.153,60.256 135.463,60.765 134.503,61.695 L134.503,71.745 L130.093,71.745 L130.093,56.866 L133.693,56.866 L133.993,58.756 L134.113,58.756 C135.373,57.556 136.873,56.506 138.882,56.506 C142.122,56.506 143.502,58.786 143.502,62.505 L143.502,71.745 L139.092,71.745 ZM119.833,72.105 C116.053,72.105 112.573,69.255 112.573,64.305 C112.573,59.356 116.053,56.506 119.833,56.506 C123.583,56.506 127.062,59.356 127.062,64.305 C127.062,69.255 123.583,72.105 119.833,72.105 ZM119.833,60.076 C118.003,60.076 117.103,61.725 117.103,64.305 C117.103,66.885 118.003,68.535 119.833,68.535 C121.633,68.535 122.563,66.885 122.563,64.305 C122.563,61.725 121.633,60.076 119.833,60.076 ZM107.353,54.676 C105.883,54.676 104.803,53.716 104.803,52.366 C104.803,51.016 105.883,50.086 107.353,50.086 C108.853,50.086 109.903,51.016 109.903,52.366 C109.903,53.716 108.853,54.676 107.353,54.676 ZM100.603,68.655 C101.083,68.655 101.623,68.505 102.013,68.355 L102.703,71.565 C101.923,71.805 100.843,72.105 99.403,72.105 C95.713,72.105 94.274,69.795 94.274,66.345 L94.274,60.315 L92.234,60.315 L92.234,57.046 L94.514,56.866 L95.024,52.906 L98.683,52.906 L98.683,56.866 L102.253,56.866 L102.253,60.315 L98.683,60.315 L98.683,66.285 C98.683,67.965 99.433,68.655 100.603,68.655 ZM86.593,70.215 L86.473,70.215 C85.213,71.325 83.833,72.105 82.153,72.105 C79.423,72.105 77.714,70.125 77.714,67.605 C77.714,64.485 80.203,62.775 86.083,62.175 C85.993,60.855 85.363,60.016 83.743,60.016 C82.483,60.016 81.253,60.525 79.813,61.365 L78.224,58.456 C80.113,57.316 82.243,56.506 84.583,56.506 C88.393,56.506 90.493,58.666 90.493,63.225 L90.493,71.745 L86.893,71.745 L86.593,70.215 ZM86.083,64.815 C82.963,65.235 81.943,66.135 81.943,67.275 C81.943,68.235 82.603,68.685 83.653,68.685 C84.643,68.685 85.303,68.205 86.083,67.425 L86.083,64.815 ZM66.733,71.745 L61.723,56.866 L66.163,56.866 L68.083,63.885 C68.473,65.355 68.863,66.915 69.253,68.475 L69.373,68.475 C69.733,66.915 70.123,65.355 70.513,63.885 L72.463,56.866 L76.693,56.866 L71.833,71.745 L66.733,71.745 ZM57.224,54.676 C55.754,54.676 54.674,53.716 54.674,52.366 C54.674,51.016 55.754,50.086 57.224,50.086 C58.724,50.086 59.774,51.016 59.774,52.366 C59.774,53.716 58.724,54.676 57.224,54.676 ZM50.474,68.655 C50.954,68.655 51.494,68.505 51.884,68.355 L52.574,71.565 C51.794,71.805 50.714,72.105 49.274,72.105 C45.584,72.105 44.144,69.795 44.144,66.345 L44.144,60.315 L42.104,60.315 L42.104,57.046 L44.384,56.866 L44.894,52.906 L48.554,52.906 L48.554,56.866 L52.124,56.866 L52.124,60.315 L48.554,60.315 L48.554,66.285 C48.554,67.965 49.304,68.655 50.474,68.655 ZM39.014,72.105 C35.984,72.105 34.964,70.125 34.964,67.125 L34.964,50.716 L39.374,50.716 L39.374,67.305 C39.374,68.235 39.794,68.535 40.154,68.535 C40.334,68.535 40.454,68.535 40.694,68.475 L41.234,71.745 C40.754,71.955 40.004,72.105 39.014,72.105 ZM27.164,69.675 L27.074,69.675 C25.814,71.175 24.434,72.105 22.394,72.105 C19.154,72.105 17.774,69.825 17.774,66.105 L17.774,56.866 L22.184,56.866 L22.184,65.535 C22.184,67.665 22.754,68.355 24.044,68.355 C25.154,68.355 25.814,67.875 26.684,66.705 L26.684,56.866 L31.094,56.866 L31.094,71.745 L27.494,71.745 L27.164,69.675 ZM9.464,68.295 C11.054,68.295 12.314,67.485 13.274,66.465 L15.614,69.225 C13.994,71.115 11.834,72.105 9.284,72.105 C4.334,72.105 0.195,68.655 0.195,62.085 C0.195,55.606 4.484,51.826 9.434,51.826 C11.954,51.826 13.994,53.026 15.314,54.376 L12.974,57.196 C11.984,56.296 10.934,55.636 9.524,55.636 C6.854,55.636 4.724,58.006 4.724,61.935 C4.724,65.955 6.584,68.295 9.464,68.295 ZM59.444,71.745 L55.034,71.745 L55.034,56.866 L59.444,56.866 L59.444,71.745 ZM109.573,71.745 L105.163,71.745 L105.163,56.866 L109.573,56.866 L109.573,71.745 Z"></path>
</g>
</svg>